<svg width="15" height="15" viewBox="0 0 15 15" fill="none" xmlns="http://www.w3.org/2000/svg">
<path d="M7.15125 3.98621C9.12 3.98621 10.745 5.61121 10.745 7.57996C10.745 9.57996 9.12 11.1737 7.15125 11.1737C5.15125 11.1737 3.5575 9.57996 3.5575 7.57996C3.5575 5.61121 5.15125 3.98621 7.15125 3.98621ZM7.15125 9.92371C8.4325 9.92371 9.46375 8.89246 9.46375 7.57996C9.46375 6.29871 8.4325 5.26746 7.15125 5.26746C5.83875 5.26746 4.8075 6.29871 4.8075 7.57996C4.8075 8.89246 5.87 9.92371 7.15125 9.92371ZM11.7137 3.86121C11.7137 4.32996 11.3387 4.70496 10.87 4.70496C10.4012 4.70496 10.0262 4.32996 10.0262 3.86121C10.0262 3.39246 10.4012 3.01746 10.87 3.01746C11.3387 3.01746 11.7137 3.39246 11.7137 3.86121ZM14.0887 4.70496C14.1512 5.86121 14.1512 9.32996 14.0887 10.4862C14.0262 11.6112 13.7762 12.58 12.9637 13.4237C12.1512 14.2362 11.1512 14.4862 10.0262 14.5487C8.87 14.6112 5.40125 14.6112 4.245 14.5487C3.12 14.4862 2.15125 14.2362 1.3075 13.4237C0.494995 12.58 0.244995 11.6112 0.182495 10.4862C0.119995 9.32996 0.119995 5.86121 0.182495 4.70496C0.244995 3.57996 0.494995 2.57996 1.3075 1.76746C2.15125 0.954956 3.12 0.704956 4.245 0.642456C5.40125 0.579956 8.87 0.579956 10.0262 0.642456C11.1512 0.704956 12.1512 0.954956 12.9637 1.76746C13.7762 2.57996 14.0262 3.57996 14.0887 4.70496ZM12.5887 11.705C12.9637 10.7987 12.87 8.61121 12.87 7.57996C12.87 6.57996 12.9637 4.39246 12.5887 3.45496C12.3387 2.86121 11.87 2.36121 11.2762 2.14246C10.3387 1.76746 8.15125 1.86121 7.15125 1.86121C6.12 1.86121 3.9325 1.76746 3.02625 2.14246C2.40125 2.39246 1.9325 2.86121 1.6825 3.45496C1.3075 4.39246 1.40125 6.57996 1.40125 7.57996C1.40125 8.61121 1.3075 10.7987 1.6825 11.705C1.9325 12.33 2.40125 12.7987 3.02625 13.0487C3.9325 13.4237 6.12 13.33 7.15125 13.33C8.15125 13.33 10.3387 13.4237 11.2762 13.0487C11.87 12.7987 12.37 12.33 12.5887 11.705Z" fill="white"/>
</svg>
