<svg width="17" height="14" viewBox="0 0 17 14" fill="none" xmlns="http://www.w3.org/2000/svg">
<path d="M15.1174 3.32996C15.1174 3.48621 15.1174 3.61121 15.1174 3.76746C15.1174 8.11121 11.8362 13.08 5.80493 13.08C3.92993 13.08 2.21118 12.5487 0.773682 11.6112C1.02368 11.6425 1.27368 11.6737 1.55493 11.6737C3.08618 11.6737 4.49243 11.1425 5.61743 10.2675C4.17993 10.2362 2.96118 9.29871 2.55493 7.98621C2.77368 8.01746 2.96118 8.04871 3.17993 8.04871C3.46118 8.04871 3.77368 7.98621 4.02368 7.92371C2.52368 7.61121 1.39868 6.29871 1.39868 4.70496V4.67371C1.83618 4.92371 2.36743 5.04871 2.89868 5.07996C1.99243 4.48621 1.42993 3.48621 1.42993 2.36121C1.42993 1.73621 1.58618 1.17371 1.86743 0.704956C3.49243 2.67371 5.92993 3.98621 8.64868 4.14246C8.58618 3.89246 8.55493 3.64246 8.55493 3.39246C8.55493 1.57996 10.0237 0.111206 11.8362 0.111206C12.7737 0.111206 13.6174 0.486206 14.2424 1.14246C14.9612 0.986206 15.6799 0.704956 16.3049 0.329956C16.0549 1.11121 15.5549 1.73621 14.8674 2.14246C15.5237 2.07996 16.1799 1.89246 16.7424 1.64246C16.3049 2.29871 15.7424 2.86121 15.1174 3.32996Z" fill="white"/>
</svg>
