<svg width="19" height="13" viewBox="0 0 19 13" fill="none" xmlns="http://www.w3.org/2000/svg">
<path d="M17.6693 2.48621C18.0443 3.79871 18.0443 6.61121 18.0443 6.61121C18.0443 6.61121 18.0443 9.39246 17.6693 10.7362C17.4818 11.4862 16.8881 12.0487 16.1693 12.2362C14.8256 12.58 9.51306 12.58 9.51306 12.58C9.51306 12.58 4.16931 12.58 2.82556 12.2362C2.10681 12.0487 1.51306 11.4862 1.32556 10.7362C0.950562 9.39246 0.950562 6.61121 0.950562 6.61121C0.950562 6.61121 0.950562 3.79871 1.32556 2.48621C1.51306 1.73621 2.10681 1.14246 2.82556 0.954956C4.16931 0.579956 9.51306 0.579956 9.51306 0.579956C9.51306 0.579956 14.8256 0.579956 16.1693 0.954956C16.8881 1.14246 17.4818 1.73621 17.6693 2.48621ZM7.76306 9.14246L12.2006 6.61121L7.76306 4.07996V9.14246Z" fill="white"/>
</svg>
