<svg width="30" height="26" viewBox="0 0 30 26" fill="none" xmlns="http://www.w3.org/2000/svg">
<path d="M29.9858 14.1824C30.0337 15.3818 29.6261 16.5523 28.8524 17.4368C28.0787 18.3214 27.0022 18.8479 25.859 18.9009C25.7922 18.9041 25.7254 18.9058 25.6588 18.9058C25.3551 18.9055 25.0522 18.8711 24.7555 18.8029C23.8751 20.229 22.7206 21.4467 21.366 22.378C20.0113 23.3092 18.4863 23.9336 16.8885 24.2112C16.6995 24.7937 16.3225 25.2886 15.8226 25.6103C15.3227 25.9321 14.7313 26.0605 14.1507 25.9734C13.5702 25.8863 13.0368 25.5891 12.643 25.1332C12.2491 24.6773 12.0194 24.0913 11.9937 23.4766C11.9679 22.8619 12.1477 22.2571 12.5019 21.7667C12.8561 21.2763 13.3625 20.9311 13.9336 20.7909C14.5046 20.6506 15.1044 20.7241 15.6293 20.9986C16.1542 21.2731 16.5712 21.7314 16.8082 22.2943C19.0577 21.8578 21.0899 20.607 22.5506 18.7599C24.0113 16.9128 24.8078 14.5866 24.8014 12.1866C24.8014 6.51653 20.4046 1.90365 15 1.90365C9.59545 1.90365 5.19856 6.51653 5.19856 12.1866C5.19826 13.9398 5.62537 15.664 6.43927 17.1953C6.46685 17.2459 6.48756 17.3002 6.50078 17.3568C6.57939 17.586 6.57099 17.8382 6.47731 18.0611C6.38363 18.284 6.21184 18.4606 5.99749 18.5543C5.47264 18.7861 4.90894 18.9054 4.3395 18.9053C4.27249 18.9053 4.20533 18.9037 4.13803 18.9004C2.9953 18.8468 1.91945 18.32 1.1464 17.4355C0.373341 16.551 -0.0338281 15.3809 0.0141673 14.1819C0.0334617 13.7038 0.0226955 13.2772 0.0121713 12.8646C0.00237288 12.4762 -0.00784889 12.0746 0.00896568 11.6554C0.0591479 10.4847 0.539165 9.37979 1.34848 8.57206C2.15779 7.76434 3.23362 7.31647 4.35063 7.32228C6.14435 3.01672 10.2423 0 15 0C19.7577 0 23.8557 3.01672 25.6494 7.32234C26.7666 7.31566 27.8427 7.76313 28.6522 8.57088C29.4616 9.37863 29.9415 10.4839 29.991 11.6547C30.0079 12.0745 29.9977 12.4761 29.9878 12.8645C29.9774 13.2771 29.9665 13.7039 29.9858 14.1824ZM22.6092 12.1866C22.6088 13.4096 22.3406 14.6161 21.8254 15.7132C21.3101 16.8102 20.5616 17.7685 19.6375 18.5141C18.7135 19.2596 17.6385 19.7726 16.4956 20.0133C15.3527 20.2541 14.1723 20.2162 13.0455 19.9027L9.96561 21.7687C9.81021 21.8629 9.63168 21.9066 9.45261 21.8943C9.27354 21.882 9.10197 21.8142 8.9596 21.6996C8.81723 21.585 8.71045 21.4287 8.65277 21.2504C8.59509 21.0721 8.58911 20.8799 8.63556 20.698L9.4227 17.6174C8.11916 16.1392 7.39385 14.2003 7.39111 12.1866C7.39111 7.78353 10.8043 4.20175 15 4.20175C19.1957 4.20175 22.6092 7.78353 22.6092 12.1866ZM12.8846 12.1866C12.8846 11.9341 12.789 11.692 12.6188 11.5135C12.4487 11.335 12.2179 11.2347 11.9773 11.2347H11.9758C11.7964 11.2351 11.6212 11.2912 11.4722 11.396C11.3232 11.5008 11.2072 11.6496 11.1388 11.8235C11.0704 11.9975 11.0527 12.1888 11.0879 12.3733C11.1231 12.5579 11.2096 12.7273 11.3366 12.8602C11.4635 12.9932 11.6252 13.0836 11.8011 13.1202C11.9771 13.1568 12.1594 13.1379 12.3251 13.0658C12.4908 12.9937 12.6324 12.8717 12.732 12.7152C12.8316 12.5587 12.8848 12.3747 12.8848 12.1866H12.8846ZM15.9074 12.1866C15.9074 12.1554 15.9058 12.1243 15.9026 12.0933C15.8997 12.0622 15.8953 12.0312 15.8894 12.0006C15.8839 11.9701 15.8766 11.94 15.8675 11.9105C15.8591 11.8807 15.8488 11.8515 15.8379 11.8223C15.8271 11.7931 15.8138 11.7659 15.7998 11.7386C15.786 11.7111 15.7709 11.6844 15.7545 11.6586C15.7379 11.6325 15.7202 11.6073 15.7012 11.5831C15.6826 11.5588 15.6626 11.5357 15.6414 11.5139C15.6208 11.4917 15.5984 11.4708 15.5754 11.4505C15.5524 11.4314 15.5282 11.4124 15.5034 11.3953C15.4788 11.3781 15.4534 11.3622 15.4273 11.3477C15.4012 11.3331 15.374 11.3198 15.3468 11.3077C15.3195 11.2957 15.2917 11.2854 15.2633 11.2766C15.2068 11.2576 15.1483 11.2452 15.0892 11.2398C15.0003 11.2308 14.9107 11.2353 14.823 11.2531C14.7938 11.2594 14.765 11.2672 14.7366 11.2766C14.7082 11.2853 14.6804 11.2957 14.6531 11.3077C14.6259 11.3198 14.5987 11.3331 14.5727 11.3477C14.5467 11.3623 14.5213 11.3781 14.4964 11.3953C14.4716 11.4124 14.4474 11.4314 14.4251 11.4505C14.4015 11.4708 14.3797 11.4917 14.3586 11.5139C14.3373 11.5358 14.3173 11.5589 14.2986 11.5831C14.2799 11.6073 14.2624 11.6325 14.2461 11.6586C14.2294 11.6844 14.2141 11.7111 14.2001 11.7386C14.1861 11.7658 14.1736 11.7937 14.1625 11.8223C14.1511 11.8512 14.141 11.8806 14.1323 11.9105C14.1239 11.9397 14.1166 11.9702 14.1106 12.0006C14.1046 12.0313 14.1001 12.0622 14.0972 12.0933C14.0943 12.1244 14.093 12.1555 14.093 12.1866C14.093 12.2177 14.0943 12.2494 14.0972 12.2805C14.1002 12.3114 14.1047 12.3421 14.1106 12.3725C14.1166 12.4029 14.1239 12.4334 14.1323 12.4632C14.141 12.4929 14.1511 12.5222 14.1625 12.5508C14.1736 12.5796 14.1861 12.6078 14.2001 12.6352C14.2139 12.6625 14.2297 12.6891 14.2461 12.7151C14.2624 12.741 14.2799 12.766 14.2986 12.79C14.3175 12.8143 14.3375 12.8376 14.3586 12.8598C14.3797 12.8814 14.4015 12.903 14.4251 12.9226C14.4478 12.9425 14.4717 12.9609 14.4964 12.9778C14.5213 12.995 14.5466 13.0115 14.5727 13.0261C14.6252 13.0548 14.6801 13.0786 14.7366 13.0971C14.765 13.106 14.794 13.1136 14.823 13.12C14.8813 13.1325 14.9407 13.1387 15.0002 13.1384C15.2406 13.1377 15.471 13.0376 15.6414 12.8598C15.6832 12.8153 15.721 12.7669 15.7545 12.7151C15.7708 12.6891 15.7859 12.6625 15.7998 12.6352C15.8138 12.6079 15.8265 12.5793 15.8379 12.5508C15.8494 12.5222 15.8591 12.4924 15.8675 12.4632C15.8766 12.4335 15.8839 12.4032 15.8894 12.3725C15.8953 12.3421 15.8997 12.3114 15.9026 12.2805C15.9057 12.2492 15.9073 12.2178 15.9073 12.1864L15.9074 12.1866ZM18.9316 12.1866C18.9316 11.9341 18.8361 11.692 18.6659 11.5135C18.4958 11.335 18.265 11.2347 18.0244 11.2347H18.0226C17.8433 11.2351 17.668 11.2912 17.5191 11.396C17.3701 11.5008 17.2541 11.6496 17.1857 11.8236C17.1173 11.9975 17.0996 12.1889 17.1348 12.3734C17.17 12.5579 17.2565 12.7273 17.3835 12.8602C17.5104 12.9932 17.6721 13.0837 17.848 13.1202C18.024 13.1568 18.2063 13.1378 18.372 13.0658C18.5377 12.9937 18.6793 12.8717 18.7789 12.7152C18.8785 12.5587 18.9316 12.3747 18.9316 12.1866Z" fill="white"/>
</svg>
